/* XPM */
static char *a2400d0c3dd6401c8a875019e5af3b335ca4geKs010V5NKw[] = {
/* columns rows colors chars-per-pixel */
"64 64 54 1 ",
"  c #280000",
". c #2B0000",
"X c #2B0001",
"o c #2C0000",
"O c #2F0002",
"+ c #300002",
"@ c #320002",
"# c #320102",
"$ c #330204",
"% c #340204",
"& c #390000",
"* c #3C0001",
"= c #380305",
"- c #390305",
"; c #3C0406",
": c #410000",
"> c #450102",
", c #470203",
"< c #480203",
"1 c #4F0000",
"2 c #4A0304",
"3 c #4F0405",
"4 c #410408",
"5 c #440408",
"6 c #450509",
"7 c #460408",
"8 c #450709",
"9 c #49050A",
"0 c #4B060B",
"q c #47080A",
"w c #510000",
"e c #560000",
"r c #570000",
"t c #5C0000",
"y c #560608",
"u c #53090D",
"i c #540B0E",
"p c #5A0C11",
"a c #5C0E11",
"s c #640000",
"d c #62080A",
"f c #6E0C0D",
"g c #730C0D",
"h c #760C0D",
"j c #790C0D",
"k c #651116",
"l c #6B1317",
"z c #6F1619",
"x c #71161A",
"c c #73171A",
"v c #77191E",
"b c #7F1B1F",
"n c #850C0D",
"m c #8A1617",
/* pixels */
"====####.oo#.+o+%--%;%;%ooo+O.O.O.O.O.O.o+o+oO.O+%++-%--%-;%;%;%",
"====####ooo.ooOo----%;%;oo+o.O.O.O.O.O.Ooo+oO.O.++#%------%;%;%;",
"====####.oo#.O.O----;%;%.OoOO.OXO.O.O.O.oooo.O.O####%--%-%;%;%;%",
"====####.oooO.O.%--%%;%;.oOo.O...O.O.O.O#oo.O.O.####----%;%;%;%;",
"====yyyyddddddddddddyyyyyyyy3333;%;%kkkkbbbbccccaaaaxxxx00000000",
"====yyyyddddddddddddyyyyyyyy3333O;%;kkkkbbbbxccxaaaaxxxx00000000",
"====yyyyddddddddddddyyyyyyyy3333%;;%kkkkbbbbxxvxaaaazxxx00000000",
"====yyyyddddddddddddyyyyyyyy3333+%%;kkkkbbbbxcxxaaaalxxx80000000",
"====3333>>>>>>>><>2>2>>2>>>>>>>>+++$kkkk44444505>94>425988666666",
"====33332>2>2>>222222222<<<<<<<<O+$Okkkk488805025980099588666666",
"====3333>2>2>22>22<32222<<<<<<2<o#+$kkkk458805990005509085856666",
"====3333>>>22>22222<2222<<<<<<>2####kkkk4855>9909559055085596666",
"====3333>2>2&&&&<<<<<<<<&&&&oo#oo###008q4566%==%585866666665%%=%",
"====3333>>22&***<<<<<<<<&***########09005866%===889566666668%===",
"====3333>22>&***<<<<<<<<&***########00009596====665866666605====",
"====333w>>>2&***<<<<<<<<&***########00005856%===659566666655%===",
"====+oooo#oo###oooo...  ......oo....+oooo#o#o###...  .  .  ..+++",
"====+%%+########o#o#..o.+o.OO.o%O.O.O+oo########.OO.O..OO.O.++#%",
"====##+%##%+####oo#oo+ooo+oo+o%o.O.OOOo#######+%.O.O.O.O.O.O####",
"====#######+####o#o#Oo+o+o+oo+o+O.OoOO########+o..O.O.OOO.O.####",
"00000000====llllccccxxxcvvvvcccciuuuuuuu====uuuuuuuu600000000000",
"00000000====llllxcccxvccvvvvxccciuuuuuuu%===uuuuuuuu000000000000",
"00000000%===llllzcccccccvvvvxcccuuuuuuuu%===ii0iuuuu600000000000",
"00000000%===llllzcccccccvvvvxccxuuuuuuuu%===iiiiuuuu000000000000",
"4444;;%;%%##kkkk444705054444445544455455qqqqiiii%%%%550589666666",
"4444;;;;o+##kkkk478q0000958966668566666606qqiiii%===98556>666666",
"4444%;;;####kkkk488809998>455558885666660089iiii%;==4658q8866666",
"4444-;;;o###kkkk4558909004998955559566668809iiii%===6605q4856666",
"---;%-;$####08884566666640004885;=;=%%=%%%=%09905666=%=%6665%%=%",
";-;;&-%;####03008566666600959595=;;;========00005666%===6668%===",
";;;;$--%####00005596666608008888;;;;========00006666%==;6655====",
";;;;-%--####000058566666q0804588=;;;========00006666%===6605%===",
"==%%%===..... .o..ooo#o#o#o#o%o+++o###o#=====%=+==%=#=====#=====",
"=%;=;===.O.O.O.+.o.o#########+%++%######========================",
"======== .O.O.+oO.o###########+%%#######========================",
"========.O.O.Oo+.Ooo##########%+########========================",
"====000000000000====uuuuuuuuuuuu1111hhhhffffrrre####000000000000",
"====000060000000%===uuuuuuuuuuuu1111hhhhfffferreo###000000000000",
"====000000000000%===uuuuuuuuuuuu1111hhhhffffereeo##%000000000000",
"====000000000000%===uuuuuuuuuuuu11wwhhhhffffereeo###000000000000",
"====000066666666====0099445545544494112>w1>w1211o#+%000059888558",
"====000066666666%===000066666666855>11w111111111o#%+000058848855",
"====000055956666====0000666666665898111w11111111##+%000047475885",
"====000085856666%===0000666666665888111w1111111wo#%+0000997q9505",
"====0000%=%=8559====000066668887**:*:*:*1111**:*o+%#000066664666",
"====0000%===5885%===000065668887::::::::1111*:::####000066666666",
"====0000%===9505====000059585547::::::::1111::::####000066666666",
"====0000%===5858%==%000085955898*:::::::1111*:::####000066666666",
"++%##o#oo.o... .oo...  .$%%%o#o#ooooo.oo%+%+oooo##==#o#o%=%=#==#",
"%%######.o+o.OO.+o.OO.O.$;%-####oo+o+###%%++.+o+===&####========",
"########.oo+.O.Ooooo.O.O%;--###%o+o+++#o#%%%.o+o==%=####========",
"########.oooO.O.oo#oO.O.;%--###%oo+oo+##%#%%oOo+&#==####========",
"59qqmmmmjjjjnnnnssssttttrttttttt+;++0000uuuuaaaaaaaapppppppp0000",
"qqqqmmmmjjjjnnnnssssttttttttttttO+#$0000uuuuaaaaaaaapppppppp0000",
"qqqqmmmmjjjjnnnnsssstttttttttttt.###0000uuuuaaaaaaaapppppppp0000",
"qqqqmmmmjjhhnnnnsssstttttttttttt.###0000uuuuaaaaaaaapppppppp5000",
"%;%%ggggwewewwwwwwwwwwwwwwwwwwww#-;%00006485444444446;444444+%%=",
";%;%ggggeeeewewwewwewwwwwwewewew$-%-0000665666666666q65>4995====",
"%;--ggggweeeweewewweewweewwewwew--%-0000666666666695q859>888%===",
";%-%gghheeeewwwewewwweewweweweweO;--000066666666665858488588%===",
"%;%;ttttwwewwewweweewwew&&&&&&&&o##o00006666=%%%+=%=o#o#=%=%====",
";%;%ttttwewwewwewwwweeww&*******####00006666%=======####========",
"%;%;ttttwwewweewweewwewe&*******##$$00006605========####========",
";%;%tttewewewwewewwewwew&*******o#%+00006655%=======###%========"
};
