/* XPM */
static char *b054e2d02da44ee2a54ca5068a137e69tkjUvKSnluBBLe0z[] = {
/* columns rows colors chars-per-pixel */
"64 64 99 2 ",
"   c #5F3529",
".  c #62372A",
"X  c #65372B",
"o  c #6A3B2E",
"O  c #6B3C2F",
"+  c #6E3D30",
"@  c #733F31",
"#  c #6D4135",
"$  c #764232",
"%  c #704336",
"&  c #734537",
"*  c #7C4536",
"=  c #7F4637",
"-  c #744538",
";  c #794739",
":  c #7B493A",
">  c #7E4A3D",
",  c #804738",
"<  c #824938",
"1  c #834939",
"2  c #864A3A",
"3  c #814C3E",
"4  c #834C3E",
"5  c #884C3A",
"6  c #894C3B",
"7  c #8C4D3C",
"8  c #8D4E3D",
"9  c #8F503F",
"0  c #854E40",
"q  c #885041",
"w  c #8B5142",
"e  c #8D5342",
"r  c #8E5343",
"t  c #885346",
"y  c #9B5643",
"u  c #925A4A",
"i  c #955C4C",
"p  c #975E4E",
"a  c #9E5C49",
"s  c #9A5E4D",
"d  c #A75E47",
"f  c #9C604F",
"g  c #9F604F",
"h  c #A36351",
"j  c #A56453",
"k  c #A76553",
"l  c #AA6755",
"z  c #AC6755",
"x  c #B06A58",
"c  c #B76E5B",
"v  c #B86F5C",
"b  c #837467",
"n  c #847568",
"m  c #847569",
"M  c #857669",
"N  c #85776A",
"B  c #86776B",
"V  c #87786C",
"C  c #88786D",
"Z  c #887A6F",
"A  c #897B71",
"S  c #8A7E73",
"D  c #96877B",
"F  c #9C8B7B",
"G  c #9D8C7C",
"H  c #9D8C7D",
"J  c #9F8D7D",
"K  c #9F8D7F",
"L  c #A18F7F",
"P  c #9A8D80",
"I  c #9D8E83",
"U  c #9D8F84",
"Y  c #9E9185",
"T  c #9F9286",
"R  c #A28F82",
"E  c #A49181",
"W  c #A49283",
"Q  c #A29185",
"!  c #A59384",
"~  c #A49387",
"^  c #A69485",
"/  c #A79486",
"(  c #A09489",
")  c #A59689",
"_  c #A79689",
"`  c #A9988B",
"'  c #AA9B8D",
"]  c #B3A192",
"[  c #B9A697",
"{  c #B8A899",
"}  c #BBAA9C",
"|  c #BBAB9E",
" . c #BCAD9F",
".. c #BDAEA0",
"X. c #BFB1A4",
"o. c #C1AFA1",
"O. c #C2B2A4",
"+. c #C3B3A5",
"@. c #C5B6A9",
/* pixels */
"h h h h s s s s h h h h ..+.+.+.h h h h j j j j p p p p l l z z j h h h x x x x i i i i  .+.O.O.h h h h z z z z j j h h h h h h ",
"h h h h s s s s h h h h T ..+.+.h h h h j j j j p p p p l l z z h h h h x x x x i i i i Q | O.O.h h h h z z z z h h h h h h h h ",
"h h h h s s s s h h h h T ..+.+.h h h h j j j j p p p p x l l l h h h h x x x x i i i i T  .+.O.h h h h z z z z h h h h h h h h ",
"h h h h s s s s h h h h T ..+.+.h h h d j j j j p p p p l l x l h h h h x x x x i i i i U  .O.O.h h h h z z z z h h h h h h h h ",
"3 3 3 3 3 3 3 3 w w w w C R / / c c c c 3 3 3 3 - - - - + + # # > 0 > > ; ; > ; q q q q N L W W h h h h 3 3 0 4 3 3 3 3 3 4 4 4 ",
"3 3 3 3 3 3 3 3 w w w w C R / / c c c c 3 3 3 3 - - - - + % # # 0 > 0 0 > ; ; > q q q q N L W W h h h h 4 4 4 0 3 3 3 3 4 4 4 4 ",
"3 3 3 3 3 3 3 3 w w w w C R / / c c c c 3 3 3 3 - - - - % # # # > 0 0 > : : : : q q q q N K W W h h h h 0 4 0 4 3 3 3 3 4 4 4 4 ",
"3 3 3 3 3 3 3 3 w w w w C R / / c c c c 3 3 3 4 - - - - # # # # 3 > > 0 : : : : q q q 0 N K W W h h h h 4 0 4 0 3 3 3 3 4 4 4 4 ",
"* * * * 7 7 7 7 O O O O N K W W y y y y * * , * * * * * @ @ @ + ; * * * * * * * * * * * C R / / < < < < 9 9 9 9 * * * * 7 9 7 7 ",
"* * * * 7 7 7 7 O O O O N K W W y y y y * < , , * * * * @ @ @ $ * * * * * * * * * * * * C R / / < < < < 9 9 9 9 * * * * 7 7 7 9 ",
"* * * * 7 7 7 7 O O O O N K W W y y y y , * , * * * * * @ @ $ + * * * * * * * * * * * * C W / / < < < < 9 9 9 9 * * * * 7 7 7 9 ",
"* * * * 7 7 7 7 O O O O N K W W y y y y , , , , * * * * @ @ + $ * * * * * * * < * * * * V ! / / < < < < 9 9 r 7 * * * * 9 9 7 7 ",
"N b n n N N N N N N N N N R W W  .Y I I V n C C n n b n b B N b N N n C n n V M n n N N N R / E | Q T T N N N N N N N n N b n n ",
"K F F K K K K K K K K K R W W / o. . . .L L L W L L L L L L L L K K L L L L L L L L L L R W W / +.|  .| K K K K K L L L K F K F ",
"R L W I W W W W W W W W ! ! ! ! o.+.o.o.W / / E E L L L W L W W L W L L L L L E W W W W / / W W O.O.O.O.W W W W W W W W L L L L ",
"W W L W W W W W W W W W ! ! ! ! o.o.+.o.W W / E E W L L L W L W W L W R L L E E W W W W W / / / O.O.O.O.W W W W W W W W W L W L ",
"u u u u s h h h h h h h h h h h h h h h s s s s h h h h X.@.@.@.z z z z z z z z k k k k h h h h h h h h h h h h h h h h } o.o.o.",
"u u u u j h h h h h h h h h h h h h h h s s s s h h h h T X.@.@.z z z z z z z z k k k k h h h h h h h h h h h h h h h h Y } o.o.",
"u u u u h h h h h h h h h h h h h h h h s s s s h h h h ) X.@.@.z z z z z z z z k k k k h h h h h h h h h h h j h h h h I } o.o.",
"u u u u h h h h h h h h h h h h h h h h s s s s h h h h T X.@.@.z z z z z z z z k k k j h h h j h h h h h h h j h h h h I } o.o.",
"h h h h 3 3 3 3 a a a a 3 3 3 3 % % % % > 3 3 3 > > > > B L E W h h h h 3 3 3 3 * ; ; ; 3 3 3 3 # & & & 3 3 3 3 3 3 3 3 n F W L ",
"h h h h 3 3 3 3 a a a a 3 3 3 3 % % % % 3 3 3 3 > > > > B L / / h h h h 3 3 3 3 : ; ; ; 3 3 3 3 & & & & 3 3 3 3 3 3 3 > n F L W ",
"h h h h 3 3 3 3 a a a a 3 3 3 3 % % % % 3 3 3 3 > > > > B L / W h h h h 3 3 3 3 ; ; ; ; 3 3 4 4 & & & & 3 3 3 3 3 3 > 4 N F W L ",
"h h h h 3 3 3 3 a a a d 3 3 3 4 % % % # 3 3 3 3 > > > > N L / / h h h h 3 3 3 > ; ; ; ; 3 3 > 4 & & & & 3 3 3 3 3 3 3 4 n F L W ",
"y y y y . . . . 5 5 5 5 + + + + * * * * X X X X * * * * n L L W d d d d # + + + 1 1 1 1 $ $ $ $ * * * * * * * * * * * * B L W W ",
"y y y y . . . . 5 5 5 5 + + + + * * * * X X X X * * * * b L L L d d d d O + + + 1 1 1 1 $ $ $ $ * * * * * * * * * * * * B I W W ",
"y y y y . . . . 5 5 5 5 + + O O * * * * X X X X * * * * n L W L d d d d + + + + 1 1 1 < $ $ $ $ * * * * * * * * * * * * B K W W ",
"y y y y . . . . 5 5 5 5 + O @ O * * * * X X X X * * * * b L L W d d d d + + + + 1 1 1 < $ $ $ $ * * * * * * * * * * * * B K W W ",
" .Q T T n V V C N C N N N N N N B B B B b B M n V V B B D T ' '  .Q I W M n n N n B B B n n n n V B Z C B N V N B B B B B R W / ",
"+. . . .R W R R R R W R L I K K L I K K G L L L W L W E ) ` ' ' O. . .o.L L F L L L L F L L L L ) Y Q Q L L L L L F F L W W W / ",
"O.O.O.O./ / / / / / ! / W W W W W W W W L W L E L / / / ' ' ' ' O.O.+.+.E L L W W W W W L L W L _ _ ` / ^ / E E L L W L / / / E ",
"O.O.O.O./ / / / ! ! / ! W W W W W W W W W L W L / / E / ' ' ' ' O.O.+.+.E W L L W W W / L W W W _ ) ) ` E / ^ / / L L W W / / / ",
"k k k k h h h h h h h h X.@.@.@.g g g g h h h h l l l l v v v v j j k k j h h h h h h h ..+.+.+.h h h h h h h h c c v v t t t t ",
"k k k k h h h h h h h h T X.@.@.g g g g h h h h l l l l v v v v k j k k h h h h h h h h T | ..+.h h h h h h h h v v v v t t t t ",
"k k k k h h h h h h j h T X.@.@.g g g g h h h h l l l l v v v v k k k k h h h h h h h h T ..+.+.h h h h h h h h v v v v t t t t ",
"k k k j h h h h h h j j T X.@.@.g g g f h h h h l l l l v v v v k k k k h h h h h h h h U ..o.+.h h h h h h h j v v v v t t t t ",
"3 3 3 3 3 3 3 3 3 3 3 3 B K L W g f f f 3 3 3 3 3 3 3 3 3 3 3 3 w w w w e e e e > > > > S / ` ` h h h h w w e e 3 3 3 3 3 3 3 3 ",
"3 3 3 3 3 3 3 3 3 3 3 3 M K E / f f f f 3 3 3 3 3 3 3 3 3 > 3 3 w w w w e e r r > > > > A / ` ` h h h h e e e e 3 3 3 3 3 3 3 3 ",
"3 3 3 3 3 3 3 3 3 3 3 3 B K W Q f f f f 3 3 3 3 3 3 3 3 > 0 0 > w w w e r r r r > > > > A / ` ` h h h h e e e e 3 3 3 3 3 3 3 3 ",
"3 3 3 3 3 3 3 3 3 3 3 3 B K W / f f f f 3 3 3 3 3 3 3 3 > 0 > 0 w w e e r r r r > > > > A ! ` _ h h h h e e e e 3 3 3 3 3 3 3 3 ",
"3 9 7 5 * * * * 5 5 5 5 V W _ _ y y y y * * * *         * * * * O O O O < < < < * * * * n L L L y y y y * * * * 1 1 2 2 , * * * ",
"5 5 5 7 * * * * 5 5 5 5 V Q _ _ y y y y * * * *         * * * * O O o + < < < < * * * * n L L W y y y y * * * * 5 5 2 2 * * * * ",
"5 5 5 5 * * * * 5 5 5 5 V Y / _ y y y y * * * *         * * * * o o + o < < < < * * * * n L W W y y y y * * * * 1 1 5 2 * * * * ",
"5 5 7 5 * * * * 5 5 5 7 A ) ) _ y y y y * * * *         * * * * + o + o < < < < * * * * n L L W y y y y * * * * 1 5 5 1 * * * * ",
"n n n b V N N N B B B B C R ! / { P H F V B B A A C A C V V V V N N N N N N N N N N N N V Q _ _ } W Q T n C n b b b N b b b b b ",
"F K F K ! T L ! L W E T W ! / ! ..{ { } ! R R R Q ! Q Q R R R ! I I W R K K K K K K K K Q _ _ _ +.}  . .L L L L L L L L K F F F ",
"W T W K / ! ! / / / W / W / ! / | ..o.| / / / / _ _ _ _ / / / / W W / E W W W W W W W W _ _ _ _ O.O.O.O.E E E E L L L W L L L L ",
"W L R ! ! / ! ! / E / / / W ! W  .o. .| / / / / _ _ _ _ / / / / / W W W W W W W W W W W _ _ _ _ O.O.O.O.E E E L W R W R L L L L ",
"h j j j k k k k x x x x h h h h h h h h h h h h s s s s ] [ [ [ f f f f v v v v h h h h h h h h s d f f h h h h j j j j ..+.O.O.",
"h h j j k k k k x x x x g j h h h h h h h h h h s s s s D ] [ [ f f f f v v v v h h h h h h h h s h g f h h h h j j j j Q ..O.O.",
"j j j j k k h l x x x x h h h h h h h h h h h h s s s s D ] [ [ f f f f v v v v h h h h h h h h g g g g h h h h j j j j T  .O.O.",
"j j j j k k l j x x x x h h h h h h h h h h h h s s s s D ] [ [ f f f f v v v v h h h h h h h h g g g g h h h h j j j j T | O.O.",
"h h h h 3 3 3 3 > > > > 3 3 3 3 3 3 3 3 3 3 3 3 # % % % A Q _ _ h h h h > > > > 3 3 3 3 3 3 3 3 0 0 3 3 3 3 4 4 0 0 0 0 N K W W ",
"h h h h 3 3 3 3 > > > > 3 3 3 3 3 3 3 3 3 3 3 3 % % % % C Q _ _ h h h h > > > > 3 3 3 3 3 3 3 3 > > 3 3 4 4 4 4 0 0 0 0 N K W W ",
"h h h h 3 3 3 3 > > > > 3 3 3 3 3 3 3 3 3 3 3 3 % % % % A Q ) _ h h h h > > > > 3 3 3 3 3 3 4 4 0 > 3 3 4 4 4 4 0 0 0 0 N K W W ",
"h h h h 3 3 3 3 > > > , 3 3 3 3 3 3 3 3 3 3 3 0 % % % % C Q ) _ h h h h > > > > 3 3 3 3 3 1 4 < > 0 3 3 4 4 4 4 0 0 4 3 N K W W ",
"y y y y o o o o 4 7 5 1 * * * * * * * * * * * * * * * * N I ! ! y y y y * * * * * * * * * * * * < < < < * * * * 1 , , , C Q ) _ ",
"y y y y o o o o 1 1 1 5 * * * * * * * * * * * * * * * * V R ! ! y y y y * * * * * * * * * * * * < < < < * * * * , , , , A Q _ _ ",
"y y y y o o o o 7 5 1 1 * * * * * * * * * * * * * * * * N L R ! y y y y * * * * * * * * * * * * < < < < * * * * , , , , A Q _ _ ",
"y y y y o o o o 1 1 5 5 * * * * * * * * * * * * * * * * N L ! / y y y y * * * * * * * * * * * * < < < , * * * * , , 1 * C Q _ _ ",
"..T U T N B B B N N N N b N b b A A A A N N N N b N b N N R / / | Q T Q V C C C M M M b V V V N N N N N N N N N N N N b N F R W ",
"+.|  . .L W ! U L F L L L H K R ~ ! ~ ~ F L F L K F I H R / / / +. . .} Q Q Q Q L L L L R R R ! L K K K K K K K K K I K F W R R ",
"O.O.O.O./ ! W / R ! W W R K R R ` ` ` _ / W W W L R R R / / ) ! +.+.O.O._ / ) ) W R R R / / / / W W W W W W W W W W W W L W L W ",
"O.O.O.O.! / / / ! R W W R R R R ` ` ` _ R / W W W R L R / / / ! O.O.+.+._ _ _ / L W L ! / / / ! W W W W W W W W W W W W W L W L "
};
