/* XPM */
static char *c41806e5d2b54603cc69bd7da156163bGIItIcKGmfnYeIy7[] = {
/* columns rows colors chars-per-pixel */
"64 64 33 1 ",
"  c #110507",
". c #110508",
"X c #140608",
"o c #150709",
"O c #17070B",
"+ c #16080B",
"@ c #17090C",
"# c #18080C",
"$ c #19090C",
"% c #190D0F",
"& c #1C0C0F",
"* c #190D10",
"= c #1D0D10",
"- c #1C0E10",
"; c #1F0F13",
": c #1E1013",
"> c #211114",
", c #231316",
"< c #231317",
"1 c #241417",
"2 c #291519",
"3 c #2E161B",
"4 c #30181C",
"5 c #331B1F",
"6 c #34181D",
"7 c #36181E",
"8 c #38181E",
"9 c #381A1F",
"0 c #3E1E24",
"q c #402026",
"w c #44242A",
"e c #46262C",
"r c #4A2A30",
/* pixels */
",111;OOO        &&&&&&&& XXX XXX %%%%         XX++@@&&>&&&>&&&&&",
"1111;;;;%%%%%%%%11111111%%%%%%%%%%%%%%%%%%%%%%%%::>>11111111,111",
"1111;;;;%%%%%%%%11111111%%%%%%%%%%%%%%%%%%%%%%%%;;;;111111111111",
"1111;;;;%%%%%%%%11111111%%%%%%%%%%%%%%%%%%%%%%%%;;;;111111111111",
"11110000eeeeeeeeeeee000000005999111159990000eeeeeeeeqeeq99999999",
"&1110000eeeeeeeeeeee000000009999&11199990000eeeeeeeeqeeq99999999",
"&1110000eeeeeeeeeeee000000009999&11199990000eeeeeeeeeeee99999999",
"&1110000eeeeeeeeeeee000000009999&11199990000eeeeeeeeeqqe99999999",
"&1119999444444446666666644444444+:::9999444466666666666644444444",
"&1119999444444446666666644444444+:::9999444466666666666644444444",
"&1119999444444446666666644444444+:::9999444466666666667644444444",
"&1119999444444446666666644444444+:::9999444466666666664744444444",
"&,1199994444,,,,4444444411,,%&-%+:::9999444411,,444444444444111,",
";,1199994444,111444444441111----+:::99994444,1114444444444441111",
"&11199994444,11144444444,111---&@:::99994444,1114444444444441111",
";11199994444,11144444444,111---%@:::99994444,1114444444444441111",
"&111:++++++++@@@+O+X    ...OO.++.**%%O OO@+O&+++            @@O@",
"1111::::::::::::&&--%%%%****:&--***%;%;%;;;;;:>:%%%%%%%%%%%%>;;;",
"1111::::::::::::%:%-%%%%%%%%%&&-**%%%;&;;;;;;;::%%%%%%%%%%%%;;;;",
"1111::::::::::::&&--%%%%%%%%;%:&**%%;%;&;;;;;;::%%%%%%%%%%%%;;;;",
"9999999911110000eeeeeeeerrrreeee000000001,,<00000000999999998999",
"99999999&1110000eeeeeeeerrrreeee00000000%1<<00000000999999999999",
"99999999&1110000eeeeeeeerrrreeee00000000;1<<00000000999999999999",
"99999999&1110000eeeeeeeerrrreeee00000000;111000q0000999999999999",
"33332222+:::99994444888844444444334444441047qqqq,,,,444444444444",
"33332222+:::9999444488884444444444444444:444qqqq,111444444444444",
"33332222+:::99994444889944444444444444441054qqqq,111444444444444",
"33332222+:::99994444889744444444444444441558qqqq,111444444444444",
"2222,,,,+:::999944444444677744442222<<<<&111999944441,,,44441,,,",
"2222,111+:::999944444444777744442222<<11&11199994444,11144441111",
"2222,111@:::999944444444777744442222<111&11199994444,1114444,111",
"2222,111@:::999944444444777744442222<111&11199994444,1114444,111",
"&&&&&&;& %%%%       OOOO+++++++++@+++@@@&1111&&&&&&&&&;&&&&&&;&&",
"11111111%%%%%%%%%%%%;;;:::::::::::::::::11111111111111,111111111",
"11111111%%%%%%%%%%%%;;:>::::::::::::::::111111111111111111111111",
"11111111%%%%%%%%%%%%;;>:::::::::::::::::111111111111111111111111",
"1111999999999999,1110000000000001111000099999999>:::999999999999",
"&111999999999999&111000000000000%111000099999999+:::999999999999",
"&111999999999999&111000000000000&111000099999999+:::999999999999",
"&111999999999999&111000000000000&11,000099999999+:::999999999999",
"&111999944444444&111999944444444&111000044444444+:::999944444444",
"&111999944444444&111999944444444&111000044444444+:::999944444444",
"&111999944444444&111999944444444&111000044444444+:::999944444444",
"&111999944444444&111999944444444&111000044444444+:::999944444444",
"&1119999,,,,4444&111999944444444+:::99994444111>+:::999944444444",
"&1119999,1114444&111999944444444+:::999944441111+:::999944444444",
"&1119999,1114444&111999944444444+:::99994444>111@:::999944444444",
"&1119999,1114444&111999944444444+:::999944441111@:::999944444444",
"+;;;:+@@ ....    %%%%   &&&&++++X%%&;+OO@@++ OO &,,,;OO@%*&&&&&&",
">;;;::;;%%%%%%%%%%%%%%%%1111::::&%;%%:%&,>>>&%%>1,;,;;;;11111111",
";;;;::::%%%%%%%%%%%%%%%%1111::::%;;%::;;>>>>%;%%,,,,;;;;11111111",
";;;;::::%%%%%%%%%%%%%%%%1111::::%%&%%;;;>>>>%%:%;,;,;;;;11111111",
"7455q0000000eeee0000999999999999;:::99990000eeeeeeeeewwwwwww8779",
":05400000000eeee0000999799999999O:::99990000eeeeeeeewwwwwwww0799",
"<44400000000eeee0000997799999999+:::99990000eeeeeeeewwwwwwww9999",
"<04000000000eeee0000990799999999+:::99990000eeeeeeeewwwwwwww9999",
"&1119999487444444444444444444444&1119999444444444444444444441,,,",
"&1119999477444444444444444444444&1119999444444444444444444441111",
"&1119999777744444444444444444444&111999944444444444444444444,111",
"&1119999744744444444444444444444&111999944444444444444444444,111",
";11199994444444444444444:%:::>%:+:::99994444<<<<,,,,%::;,,,,,111",
"&11199994444444444444444;:::::;:+:::99994444<111,,,,::::11111111",
"&11199994444444444444444;:::::::@>::99994444,11111<<::;;11111111",
"&11199994444444444444444%:::::::+;::99994444,1111111;;;;11111111"
};
