/* XPM */
static char *f1e62676a8724cf1f6ae4016483e76eaCEABH18FBdrfXICh[] = {
/* columns rows colors chars-per-pixel */
"64 64 24 1 ",
"  c gray60",
". c #9F9F9F",
"X c #A2A2A2",
"o c gray66",
"O c gray67",
"+ c #ACACAC",
"@ c gray69",
"# c #B4B4B4",
"$ c gray72",
"% c gray",
"& c #C3C3C3",
"* c #C6C6C6",
"= c #CACACA",
"- c #CECECE",
"; c gray82",
": c #D5D5D5",
"> c gray86",
", c gainsboro",
"< c gray88",
"1 c #E6E6E6",
"2 c gray91",
"3 c #ECECEC",
"4 c gray94",
"5 c #F3F3F3",
/* pixels */
"%%%%########%%$$%%%%&&&&&&&*&&&&&&&&&&&&&&**@$$$$%$$$%$$$%$$$$%$",
"%%%%######$#$$$%&%%&&&&&&*&&&&&&&&&&&&&&*&&&$$$$$$$$$$$$$$%$%$%$",
"%%%%########$$$%%%%%&&&&*&*&&&&&&&&&&&&&*&&*$$$$$$$%$$$$$%$$$%$$",
"%%%%####$#$#%%$$%&%&&&&&&&*&&&&*&&&&&&&&&&**$$$$%$$$%$$$$$$$$$$%",
"====22222222223234343434334333431111111111111111111111111111%%%%",
"====22222222232333334343333334331111111111111111111111111111+%$%",
"====22222222323234333434333333331111111111111111111111111111+$%%",
"====22222222232333434333343434341111111111111111111111111111+%%%",
"&**&11112111111111111111111111111111111111111111111111111111+%%$",
"&&&&11111111111111111111111111111111111111111111111111111111+%%%",
"*&&*11111111111111111111111111111111111111111111111111111111O%%%",
"*&&*11111111111111111111111111111111111111111111111111111111O%$%",
"++@+::;:*=*===*==*==*=*===*=::::::::::::::::=;=;&=&**&&&&&&& OOo",
"#$$$,<,<;,,,,,>>,,>>,,,,,,>,<<<<<<<<<<<<<<<<>,:>=:>:::::::::O+@+",
"#$$$<,<,;,,,,,,,,,,,,,,,,,,,<<<<<<<<<<<<<<<<::>>=>:>::::::::+@@@",
"$$$#,<,,;,,,,,,,,,,,,,,,,,,,<<<<<<<<<<<<<<<<>>>:=:>::>:::>::O#@@",
"**&&44443434443434344444444443444444111111111111211111111111#%%%",
"&&*&44444343434443434444343444343434111111111111111111111111+%%%",
"**&&44443433444434344444444344444443111111111111111111111111+%%%",
"&&&*44444343434343434444344434343443111111111111111111111111+%%%",
"&**&11111111111111111111111111112111111111111111111111111111+%%%",
"&&&&11111111111111111111111111111111111111111111111111111111+%%%",
"*&&*11111111111111111111111111111111111111111111111111111111+%%%",
"*&&*11111111111111111111111111121111111111111111111111111111+%%%",
"+@@@;=====*=======*=;=;;::::::::::::::::=;==;==;;=;=*&&&=;=; +Oo",
"$$%$,,,,>,>>,,>>,,>>>>,,,<<<<<<<<<<<<<<<>>>>:,>::>,:=>:>,,:>X@@+",
"$%$$,,,,,,,,,,,,,,,,>>,,<<<<<<<<<<<<<<<<>:>:,,>>,>>>=,>:::>>X#@@",
"$$$$,,,,,,,,,,,,,,,,>>,,<<<<<<<<<<<<<<<<>:>>,::>>::>;::>,>>:X@@@",
"**&&44543343343322222322223222321111111111111111111111111111+%%$",
"&&*&44443434334322322232232223221111111111111111111111111111O%%%",
"**&&44554343333322222222222222221111111111111111111111111111O%%%",
"&&&*44443434434332323232232323231111111111111111111111111111O%$%",
"*&&*11111111111111111111111111111111111111111111111111111111O#%%",
"****11111111111111111111111111111111111111111111111111111111O%%%",
"&**&11111111111111111111111111111111111111111111111111111111+%%$",
"&***11111111111111111111111111121111111111111111111111111111+%%%",
"+@+@::;:*=*===*=::::::::::::;:;::;:;::::=;=;;=;=*&*&&&*&*=*= Ooo",
"$##$,<,<;,>,,,,,<<<<<<<<<<<<<,,,,,,<<<<<>:,:,,:>=:::::::,,,,O+@+",
"$$$$<,<,;,,,,,,,<<<<<<<<<<<<,,,<,,,,<<<<>>:>:>:>=:::::>:,,>,+@@@",
"#$#$,<,,;,,,,,,,<<<<<<<<<<<<<,,,,,,,<<<<:>>>:>>,=::,::::,,>>+#@@",
"***&44555555555544554455554433333333333333331111111111111111@%$%",
"***&44545555555555455554455533333333333333331111111111111111+%$%",
"****55545555555544555554455433333333333333331111111111111111+$%%",
"*&&*44555555555555544455554433333333333333331111111111111111+%%$",
"****21111111111111112111111111112211111111111111111111111111O%$%",
"****21111111111111111111111111111111111111111111111111111111O$%$",
"****11111111111111111111111111111111111111111111111111111111O%$%",
"****11111111111111111111111111111111111111111111111111111111O$%$",
"++@+;===*==*==*=====*==*:>:::,::::::::::&*&&*&&*&&&&&&&&=;=; +Oo",
"$$$$,,,,>,,,>>>>,,>,,>,,<<<<<<<<<<<<<<<<=:>>:>:::>:>>:;:>,:>X@+O",
"#$$$,,,,,,,,,,,,,,,,,,,,<<<<<1<2<<<<<<<<;:>:>::>>:>:::::::>>O@@@",
"$$$#,,,,,,,,,,,,,,,,,,,,<<1<<<<<<<<<<<<<=,:>:>,;:>:>::>:>>>:X@@#",
"****45544444343454555445454544543343111111111111111111111111o$$$",
"****45544444444454545555545545443434111111111111111111111111O##&",
"****55554444443455454544554444554343111111111111111111111111+$$%",
"****54454444434445554544455554443434111111111111111111111111+%$$",
"&***11111111111111111111111111112111111111111111111111111111O$$$",
"**&&11111111111111111111111111111111111111111111111111111111o#$$",
"*&**11111111111111111111111111111111111111111111111111111111+$$%",
"**&*11111111111111111111111111111111111111111111111111111111O$$$",
"##$#@XXXXXXXXX..XX.XXXXX....X..XXXXXOOXXXXXOXXXX . .. ...... +++",
"%%%&$%$%$$$$$$$$$$$$$$$$$$$$$#@$$%%$#%#%%$%$%%$%###@##@#@#@#####",
"&%%&$$%$%$$%$$$$$%$%$$$$$$$$$$$$%%%%%$%%%%$%$%$%##############$#",
"%%%%%$$$%$$%$$%$$$$$$$$$$$$$$#$#%$$%%%%%$%%%$%%%#############$##"
};
